<?xml version="1.0"?>
<svg version="1.1" xmlns="http://www.w3.org/2000/svg" width="310px" height="80px" style=""><path fill="#a80bd4" d="M20.942,62.2l0-2.331l-6.586,0q-4.588,0-7.696-3.108t-3.108-7.696q0-4.218,3.108-7.252t7.696-3.034l6.586,0l0-2.405l-6.586,0q-5.587,0-9.361,3.7q-3.774,3.663-3.774,8.991q0,5.661,3.774,9.361q3.7,3.774,9.361,3.774l6.586,0z M36.03208,36.3q-4.181,0-7.178,2.997q-3.034,3.034-3.034,7.215l0,5.587q0,4.107,3.034,7.141t7.178,3.034q4.181,0,7.215-3.034q2.997-2.997,2.997-7.141l0-5.587q0-4.218-2.997-7.215t-7.215-2.997z M43.95008,46.512l0,5.587q0,3.367-2.368,5.661q-2.331,2.22-5.55,2.22t-5.513-2.22q-2.368-2.294-2.368-5.661l0-5.587q0-3.108,2.368-5.55q2.368-2.368,5.513-2.368q3.108,0,5.55,2.368q2.368,2.442,2.368,5.55z M59.85416,36.263l-5.661,0l-1.406,0l-0.925,0l0,25.937l0.925,0l1.406,0l5.661,0q5.402,0,9.25-3.774q3.959-3.885,3.959-9.435q0-5.254-3.959-9.028q-3.885-3.7-9.25-3.7z M59.85416,59.869l-5.661,0l0-21.201l5.661,0q4.625,0,7.77,3.034q3.108,3.034,3.108,7.289q0,4.625-3.108,7.733q-3.145,3.145-7.77,3.145z M80.49424,55.096q0-1.776,1.258-3.219q1.258-1.517,3.034-1.517l0.481,0l6.919,0l0-2.294l-6.919,0l-0.481,0q-1.887-0.37-3.0895-1.628t-1.2025-2.997q0-2.183,1.2765-3.4595t3.4965-1.2765l12.58,0l0-2.331l-12.58,0q-2.849,0-4.958,2.109q-2.109,2.035-2.109,4.958q0,1.85,0.703,3.367t2.072,2.183q-1.369,0.999-2.072,2.627t-0.703,3.478q0,2.886,2.109,4.921q2.146,2.146,4.958,2.146l12.58,0l0-2.442l-12.58,0q-2.22,0-3.4965-1.258t-1.2765-3.367z M108.53432,39.001l13.949,0l0-2.812l-13.949,0q-2.738,0-4.588,2.146q-1.887,2.183-1.887,5.291q0,2.812,1.887,4.884q1.85,2.109,4.588,2.109l3.7,0l3.774,0q1.665,0,2.96,1.406q1.221,1.48,1.221,3.219q0,2.072-1.2025,3.367t-2.9785,1.295l-13.949,0l0,2.294l13.949,0q2.775,0,4.625-1.924t1.85-5.032q0-2.812-1.85-4.884q-1.887-2.072-4.625-2.072l-3.774,0l-3.7,0q-1.702,0-2.923-1.48q-1.258-1.369-1.258-3.182q0-2.072,1.2025-3.3485t2.9785-1.2765z M141.9024,36.3l-11.618,0l-2.294,0l0,26.011l2.294,0l0-13.024l11.618,0q2.812,0,4.662-1.85t1.85-4.625q0-2.516-1.85-4.477q-1.961-2.035-4.662-2.035z M141.9024,46.993l-11.618,0l0-8.399l11.618,0q1.702,0,2.997,1.221q1.221,1.295,1.221,2.997q0,1.739-1.221,2.96q-1.295,1.221-2.997,1.221z M162.83848,36.3q-4.181,0-7.178,2.997q-3.034,3.034-3.034,7.215l0,5.587q0,4.107,3.034,7.141t7.178,3.034q4.181,0,7.215-3.034q2.997-2.997,2.997-7.141l0-5.587q0-4.218-2.997-7.215t-7.215-2.997z M170.75648,46.512l0,5.587q0,3.367-2.368,5.661q-2.331,2.22-5.55,2.22t-5.513-2.22q-2.368-2.294-2.368-5.661l0-5.587q0-3.108,2.368-5.55q2.368-2.368,5.513-2.368q3.108,0,5.55,2.368q2.368,2.442,2.368,5.55z M197.46456,36.3l-20.054,0l0,2.257l9.102,0l0,23.717l2.294,0l0-23.717l8.658,0l0-2.257z M202.23164,62.274l18.093,0l0-1.887l-15.799,0l0-24.087l-2.294,0l0,25.974z M224.75872,62.237l2.331,0l0-26.011l-2.331,0l0,26.011z M245.1768,38.52l7.141,0l0-2.331l-7.141,0q-5.328,0-9.028,3.774q-3.737,3.811-3.737,9.509q0,5.291,3.737,9.028t9.028,3.737l4.736,0l2.405,0l0-2.368l0-11.84l-2.405,0l-5.661,0l0,2.368l5.661,0l0,9.472l-4.736,0q-4.218,0-7.289-3.071t-3.071-7.326q0-4.625,3.071-7.807q3.034-3.145,7.289-3.145z M278.21188,36.226l-2.331,0l0,11.84l-15.614,0l0-11.84l-2.331,0l0,25.974l2.331,0l0-11.803l15.614,0l0,11.803l2.331,0l0-25.974z M302.99596,36.3l-20.054,0l0,2.257l9.102,0l0,23.717l2.294,0l0-23.717l8.658,0l0-2.257z"/><path fill="#" d=""/></svg>
